{"title":"Rhapsody of Fire - Rain of a Thousand Flames [Flac] Symphonic Me","uid":6082477,"size":328764692,"categoryP":"audio","categoryS":"flac","magnet":"?xt=urn:btih:736cf9708ff7b421e3a0370aba5a52b223e14f89&amp;dn=Rhapsody+of+Fire+-+Rain+of+a+Thousand+Flames+%5BFlac%5D+Symphonic+Me&amp;tr=udp%3A%2F%2Ftracker.openbittorrent.com%3A80&amp;tr=udp%3A%2F%2Fopen.demonii.com%3A1337&amp;tr=udp%3A%2F%2Ftracker.coppersurfer.tk%3A6969&amp;tr=udp%3A%2F%2Fexodus.desync.com%3A6969","seeders":0,"leechers":1,"uploader":"Cer8one","files":-1,"time":1294173722,"description":"Artista: Rhapsody of Fire\nTipo album: EP\nPubblicazione: 2001\nDurata 42 min : 01 s\nDischi 1\nTracce 7\nGenere: Symphonic metal, Film Score Metal\nEtichetta LMP\nFormato: Flac\nFonte: Cd Originale\nRipped with EAC, secure no C2, accurate stream, disable cache.\nEAC log, cue\nFull Artwork\n\n\n1. Rain of a Thousand Flames - 3:43\n  2. Deadly Omen - 1:49\n  3. Queen of the Dark Horizons - 13:42\n  4. Tears of a Dying Angel - 6:23\n  5. Elnor's Magic Valley - 1:40\n  6. The Poem's Evil Page - 4:04\n  7. The Wizard's Last Rhymes - 10:38\n\n\nExact Audio Copy V0.99 prebeta 5 from 4. May 2009\n\nEAC extraction logfile from 19. November 2010, 19:04\n\nRhapsody / Rain Of A Thousand Flames\n\nUsed drive  : _NEC    DVD_RW ND-4551A   Adapter: 2  ID: 2\n\nRead mode               : Secure\nUtilize accurate stream : Yes\nDefeat audio cache      : Yes\nMake use of C2 pointers : No\n\nRead offset correction                      : 48\nOverread into Lead-In and Lead-Out          : No\nFill up missing offset samples with silence : Yes\nDelete leading and trailing silent blocks   : No\nNull samples used in CRC calculations       : Yes\nUsed interface                              : Native Win32 interface for Win NT &amp; 2000\nGap handling                                : Appended to previous track\n\nUsed output format              : User Defined Encoder\nSelected bitrate                : 768 kBit/s\nQuality                         : High\nAdd ID3 tag                     : No\nCommand line compressor         : C:\\Programmi\\Exact Audio Copy\\FLAC\\FLAC.EXE\nAdditional command line options : -8 -V -T &quot;artist=%a&quot; -T &quot;title=%t&quot; -T &quot;album=%g&quot; -T &quot;date=%y&quot; -T &quot;tracknumber=%n&quot; -T &quot;genre=%m&quot; %s\n\n\nTOC of the extracted CD\n\n    Track |   Start  |  Length  | Start sector | End sector\n   ---------------------------------------------------------\n       1  |  0:00.00 |  3:44.44 |         0    |    16843  \n       2  |  3:44.44 |  1:48.44 |     16844    |    24987  \n       3  |  5:33.13 | 13:41.45 |     24988    |    86607  \n       4  | 19:14.58 |  6:22.13 |     86608    |   115270  \n       5  | 25:36.71 |  1:40.30 |    115271    |   122800  \n       6  | 27:17.26 |  4:04.41 |    122801    |   141141  \n       7  | 31:21.67 | 10:31.34 |    141142    |   188500  \n       8  | 44:25.26 |  4:18.44 |    199901    |   219294  \n\n\nTrack  1\n\n    Filename G:\\Musica\\01 - Rain Of A Thousand Flames.wav\n\n    Pre-gap length  0:00:02.00\n\n    Peak level 98.8 %\n    Track quality 100.0 %\n    Test CRC C63B1240\n    Copy CRC C63B1240\n    Accurately ripped (confidence 1  [827C49C4]\n    Copy OK\n\nTrack  2\n\n    Filename G:\\Musica\\02 - Deadly Omen.wav\n\n    Pre-gap length  0:00:02.05\n\n    Peak level 98.8 %\n    Track quality 99.9 %\n    Test CRC C1EB480A\n    Copy CRC C1EB480A\n    Accurately ripped (confidence 1  [429C1343]\n    Copy OK\n\nTrack  3\n\n    Filename G:\\Musica\\03 - Queen Of The Dark Horizons.wav\n\n    Pre-gap length  0:00:00.05\n\n    Peak level 98.8 %\n    Track quality 100.0 %\n    Test CRC C3039410\n    Copy CRC C3039410\n    Accurately ripped (confidence 1  [40278AFE]\n    Copy OK\n\nTrack  4\n\n    Filename G:\\Musica\\04 - Rhymes Of A Tragic Poem - The Gothic Saga- 1. Tears Of A Dying Angel.wav\n\n    Peak level 99.6 %\n    Track quality 100.0 %\n    Test CRC 41991855\n    Copy CRC 41991855\n    Accurately ripped (confidence 1  [CCB1F9B9]\n    Copy OK\n\nTrack  5\n\n    Filename G:\\Musica\\05 - Rhymes Of A Tragic Poem - The Gothic Saga- 2. Elnor's Magic Valley.wav\n\n    Pre-gap length  0:00:00.08\n\n    Peak level 67.6 %\n    Track quality 100.0 %\n    Test CRC B2DB656B\n    Copy CRC B2DB656B\n    Accurately ripped (confidence 1  [B8186279]\n    Copy OK\n\nTrack  6\n\n    Filename G:\\Musica\\06 - Rhymes Of A Tragic Poem - The Gothic Saga- 3. The Poem's Evil Page.wav\n\n    Pre-gap length  0:00:00.20\n\n    Peak level 98.8 %\n    Track quality 100.0 %\n    Test CRC 4C69BAAD\n    Copy CRC 4C69BAAD\n    Accurately ripped (confidence 17)  [11918D27]\n    Copy OK\n\nTrack  7\n\n    Filename G:\\Musica\\07 - Rhymes Of A Tragic Poem - The Gothic Saga- 4. The Wizard's Last Rhymes.wav\n\n    Peak level 98.8 %\n    Track quality 100.0 %\n    Test CRC 52524A2D\n    Copy CRC 52524A2D\n    Accurately ripped (confidence 17)  [3C8F7D35]\n    Copy OK\n\n\nAll tracks accurately ripped\n\nNo errors occurred\n\nEnd of status report\n","torrent":{"xt":"urn:btih:736cf9708ff7b421e3a0370aba5a52b223e14f89","amp;dn":"Rhapsody+of+Fire+-+Rain+of+a+Thousand+Flames+%5BFlac%5D+Symphonic+Me","amp;tr":["udp%3A%2F%2Ftracker.openbittorrent.com%3A80","udp%3A%2F%2Fopen.demonii.com%3A1337","udp%3A%2F%2Ftracker.coppersurfer.tk%3A6969","udp%3A%2F%2Fexodus.desync.com%3A6969"],"infoHash":"736cf9708ff7b421e3a0370aba5a52b223e14f89","infoHashBuffer":{"type":"Buffer","data":[115,108,249,112,143,247,180,33,227,160,55,10,186,90,82,178,35,225,79,137]},"announce":[],"urlList":[]}}